<svg width="64" height="64" viewBox="0 0 64 64" fill="none" xmlns="http://www.w3.org/2000/svg">
<circle cx="32" cy="32" r="32" fill="#E6FAF9"/>
<g clip-path="url(#clip0_0_4699)">
<path d="M29.7507 47.3004C37.966 47.3004 44.6257 40.6407 44.6257 32.4254C44.6257 24.2102 37.966 17.5504 29.7507 17.5504C21.5355 17.5504 14.8757 24.2102 14.8757 32.4254C14.8757 40.6407 21.5355 47.3004 29.7507 47.3004Z" fill="#03B5B0"/>
<path d="M29.7507 45.5505C37.966 45.5505 44.6257 38.8908 44.6257 30.6755C44.6257 22.4603 37.966 15.8005 29.7507 15.8005C21.5355 15.8005 14.8757 22.4603 14.8757 30.6755C14.8757 38.8908 21.5355 45.5505 29.7507 45.5505Z" fill="#B1EEEC"/>
<path d="M29.752 43.7994C36.5174 43.7994 42.002 38.3149 42.002 31.5494C42.002 24.784 36.5174 19.2994 29.752 19.2994C22.9865 19.2994 17.502 24.784 17.502 31.5494C17.502 38.3149 22.9865 43.7994 29.752 43.7994Z" fill="#D9F7F6"/>
<path d="M29.752 42.9258C36.5174 42.9258 42.002 37.4413 42.002 30.6758C42.002 23.9103 36.5174 18.4258 29.752 18.4258C22.9865 18.4258 17.502 23.9103 17.502 30.6758C17.502 37.4413 22.9865 42.9258 29.752 42.9258Z" fill="#03C9C3"/>
<path fill-rule="evenodd" clip-rule="evenodd" d="M26.9468 24.9194C27.7776 24.0886 28.9043 23.6219 30.0791 23.6219C31.2539 23.6219 32.3806 24.0886 33.2114 24.9194C34.0421 25.7501 34.5088 26.8768 34.5088 28.0516C34.5088 28.8671 33.8477 29.5282 33.0322 29.5282C32.2167 29.5282 31.5557 28.8671 31.5557 28.0516C31.5557 27.66 31.4001 27.2845 31.1232 27.0075C30.8463 26.7306 30.4707 26.5751 30.0791 26.5751C29.6875 26.5751 29.3119 26.7306 29.035 27.0075C28.7581 27.2845 28.6025 27.66 28.6025 28.0516V33.9579C28.6025 34.3495 28.7581 34.7251 29.035 35.002C29.3119 35.2789 29.6875 35.4344 30.0791 35.4344C30.4707 35.4344 30.8463 35.2789 31.1232 35.002C31.4001 34.7251 31.5557 34.3495 31.5557 33.9579C31.5557 33.1424 32.2167 32.4813 33.0322 32.4813C33.8477 32.4813 34.5088 33.1424 34.5088 33.9579C34.5088 35.1327 34.0421 36.2594 33.2114 37.0901C32.3806 37.9209 31.2539 38.3876 30.0791 38.3876C28.9043 38.3876 27.7776 37.9209 26.9468 37.0901C26.1161 36.2594 25.6494 35.1327 25.6494 33.9579V28.0516C25.6494 26.8768 26.1161 25.7501 26.9468 24.9194Z" fill="#03B5B0"/>
<path fill-rule="evenodd" clip-rule="evenodd" d="M26.9468 24.2628C27.7776 23.432 28.9043 22.9653 30.0791 22.9653C31.2539 22.9653 32.3806 23.432 33.2114 24.2628C34.0421 25.0935 34.5088 26.2202 34.5088 27.395C34.5088 28.2105 33.8477 28.8716 33.0322 28.8716C32.2167 28.8716 31.5557 28.2105 31.5557 27.395C31.5557 27.0034 31.4001 26.6278 31.1232 26.3509C30.8463 26.074 30.4707 25.9185 30.0791 25.9185C29.6875 25.9185 29.3119 26.074 29.035 26.3509C28.7581 26.6278 28.6025 27.0034 28.6025 27.395V33.3013C28.6025 33.6929 28.7581 34.0684 29.035 34.3454C29.3119 34.6223 29.6875 34.7778 30.0791 34.7778C30.4707 34.7778 30.8463 34.6223 31.1232 34.3454C31.4001 34.0684 31.5557 33.6929 31.5557 33.3013C31.5557 32.4858 32.2167 31.8247 33.0322 31.8247C33.8477 31.8247 34.5088 32.4858 34.5088 33.3013C34.5088 34.4761 34.0421 35.6028 33.2114 36.4335C32.3806 37.2643 31.2539 37.731 30.0791 37.731C28.9043 37.731 27.7776 37.2643 26.9468 36.4335C26.1161 35.6028 25.6494 34.4761 25.6494 33.3013V27.395C25.6494 26.2202 26.1161 25.0935 26.9468 24.2628Z" fill="#E6FAF9"/>
<circle cx="42.3504" cy="40.5506" r="8.1" fill="#E6FAF9"/>
<path fill-rule="evenodd" clip-rule="evenodd" d="M42.756 34.5713C43.294 34.5713 43.7562 34.9417 43.8574 35.454L43.9024 35.6817C44.0793 36.5771 45.0345 37.1118 45.9227 36.8126L46.1488 36.7365C46.657 36.5654 47.2189 36.7682 47.4879 37.2199L47.8942 37.9021C48.1632 38.3538 48.0634 38.9271 47.6564 39.2682L47.4754 39.4199C46.764 40.0161 46.764 41.0854 47.4754 41.6816L47.6564 41.8333C48.0634 42.1744 48.1632 42.7477 47.8942 43.1994L47.4879 43.8816C47.2189 44.3333 46.657 44.5361 46.1488 44.365L45.9228 44.2888C45.0345 43.9897 44.0793 44.5244 43.9024 45.4197L43.8574 45.6475C43.7562 46.1598 43.294 46.5302 42.756 46.5302H41.9435C41.4055 46.5302 40.9433 46.1598 40.8421 45.6476L40.7971 45.4197C40.6202 44.5243 39.6649 43.9897 38.7767 44.2888L38.5507 44.3649C38.0426 44.5361 37.4806 44.3333 37.2116 43.8816L36.8053 43.1994C36.5363 42.7477 36.6361 42.1744 37.0431 41.8333L37.2241 41.6816C37.9354 41.0854 37.9354 40.0161 37.2241 39.4199L37.0431 39.2682C36.6361 38.9271 36.5363 38.3538 36.8053 37.9021L37.2116 37.2199C37.4806 36.7682 38.0425 36.5654 38.5507 36.7365L38.7767 36.8126C39.665 37.1118 40.6202 36.5771 40.7971 35.6818L40.8421 35.4539C40.9433 34.9417 41.4055 34.5713 41.9435 34.5713H42.756ZM42.3497 42.2592C43.2933 42.2592 44.0582 41.4943 44.0582 40.5508C44.0582 39.6072 43.2933 38.8423 42.3497 38.8423C41.4062 38.8423 40.6413 39.6072 40.6413 40.5508C40.6413 41.4943 41.4062 42.2592 42.3497 42.2592Z" fill="#03B5B0"/>
</g>
<defs>
<clipPath id="clip0_0_4699">
<rect width="36" height="33.3" fill="white" transform="translate(14 15.35)"/>
</clipPath>
</defs>
</svg>
